<svg enable-background="new 0 0 40 40" height="40" viewBox="0 0 40 40" width="40" xmlns="http://www.w3.org/2000/svg"><path d="m21.93 35h-5.405c-.409 0-.738-.329-.738-.738v-12.336h-3.51c-.407 0-.738-.332-.738-.737v-5.796c0-.406.331-.738.738-.738h3.51v-1.519c0-4.41 3.322-8.136 7.255-8.136h4.684c.406 0 .737.331.737.738v5.794c0 .405-.331.738-.737.738h-4.676c-.086.021-.381.269-.381.814v1.569h5.057c.406 0 .737.332.737.738v5.796c0 .405-.331.737-.737.737h-5.057v12.336c-.001.411-.331.74-.739.74zm-4.667-1.477h3.929v-12.335c0-.41.33-.738.738-.738h5.057v-4.32h-5.057c-.408 0-.738-.328-.738-.737v-2.308c0-1.37.956-2.291 1.85-2.291h3.945v-4.317h-3.945c-3.079 0-5.778 3.112-5.778 6.659v2.257c0 .409-.331.737-.738.737h-3.51v4.32h3.51c.408 0 .738.328.738.738v12.335z"/></svg>